<svg width="20" height="22" viewBox="0 0 20 22" fill="none" xmlns="http://www.w3.org/2000/svg">
<path d="M4.17535 5.26154C5.82817 3.93727 7.88371 3.21721 10.0016 3.22059C12.2054 3.22059 14.2308 3.98387 15.8279 5.26154L17.0531 4.03627C17.2087 3.88075 17.4608 3.88075 17.6163 4.03627L18.5196 4.9395C18.6751 5.09502 18.6751 5.34717 18.5196 5.50269L17.2943 6.72796C18.3912 8.1012 19.0781 9.75624 19.2759 11.5026C19.4738 13.249 19.1745 15.0158 18.4125 16.5996C17.6506 18.1834 16.457 19.5199 14.969 20.4552C13.481 21.3906 11.7592 21.8869 10.0016 21.8869C8.24406 21.8869 6.52222 21.3906 5.03424 20.4552C3.54626 19.5199 2.35262 18.1834 1.59068 16.5996C0.828736 15.0158 0.52946 13.249 0.72729 11.5026C0.925119 9.75624 1.61202 8.1012 2.70893 6.72796L1.48385 5.50373C1.32824 5.34822 1.3282 5.096 1.48376 4.94044L2.38689 4.03731C2.54241 3.88179 2.79456 3.88179 2.95008 4.03731L4.17535 5.26258V5.26154ZM10.0016 19.8137C10.9549 19.8137 11.8989 19.6259 12.7797 19.2611C13.6605 18.8963 14.4607 18.3616 15.1349 17.6875C15.809 17.0134 16.3437 16.2131 16.7085 15.3323C17.0733 14.4516 17.2611 13.5076 17.2611 12.5542C17.2611 11.6009 17.0733 10.6569 16.7085 9.77614C16.3437 8.89537 15.809 8.09509 15.1349 7.42099C14.4607 6.74688 13.6605 6.21215 12.7797 5.84733C11.8989 5.4825 10.9549 5.29473 10.0016 5.29473C8.07627 5.29473 6.22979 6.05957 4.86837 7.42099C3.50695 8.78241 2.74212 10.6289 2.74212 12.5542C2.74212 14.4796 3.50695 16.326 4.86837 17.6875C6.22979 19.0489 8.07627 19.8137 10.0016 19.8137ZM5.85333 0.507611C5.85333 0.287671 6.03162 0.109375 6.25156 0.109375H13.7517C13.9716 0.109375 14.1499 0.287671 14.1499 0.50761V1.78528C14.1499 2.00522 13.9716 2.18352 13.7517 2.18352H6.25156C6.03162 2.18352 5.85333 2.00522 5.85333 1.78528V0.507611Z" fill="#789194"/>
<path d="M14.1114 13.7299L11.417 12.1743L13.753 8.12819L5.88927 11.3779L8.58366 12.9335L6.25025 16.975L14.1114 13.7299Z" fill="#789194"/>
</svg>
